<mxfile host="www.draw.io" modified="2020-02-29T05:03:19.764Z" agent="Mozilla/5.0 (Windows NT 10.0; Win64; x64) AppleWebKit/537.36 (KHTML, like Gecko) Chrome/80.0.3987.122 Safari/537.36" etag="hcG7gd_EvzKyBUtDoKGc" version="12.7.9" type="github">
  <diagram id="Wd6LR5NKa481lRjF05Jv" name="Page-1">
    <mxGraphModel dx="854" dy="457" grid="1" gridSize="10" guides="1" tooltips="1" connect="1" arrows="1" fold="1" page="1" pageScale="1" pageWidth="850" pageHeight="1100" math="0" shadow="0">
      <root>
        <mxCell id="0" />
        <mxCell id="1" parent="0" />
        <mxCell id="62Qr0YO84GYJHYSvFtpG-1" value="" style="group" vertex="1" connectable="0" parent="1">
          <mxGeometry x="330" y="60" width="180" height="370" as="geometry" />
        </mxCell>
        <mxCell id="wQzWPM8DhsRYUBK1nbHr-1" value="" style="shape=image;html=1;verticalAlign=top;verticalLabelPosition=bottom;labelBackgroundColor=#ffffff;imageAspect=0;aspect=fixed;image=https://cdn2.iconfinder.com/data/icons/electronic-13/480/3-electronic-arduino-chipset-icon-2-128.png" parent="62Qr0YO84GYJHYSvFtpG-1" vertex="1">
          <mxGeometry x="25" y="120" width="130" height="130" as="geometry" />
        </mxCell>
        <mxCell id="wQzWPM8DhsRYUBK1nbHr-9" value="" style="group;rotation=-181;" parent="62Qr0YO84GYJHYSvFtpG-1" vertex="1" connectable="0">
          <mxGeometry x="40" y="30" width="100" height="50" as="geometry" />
        </mxCell>
        <mxCell id="wQzWPM8DhsRYUBK1nbHr-8" value="" style="group;rotation=-181;" parent="wQzWPM8DhsRYUBK1nbHr-9" vertex="1" connectable="0">
          <mxGeometry width="100" height="50" as="geometry" />
        </mxCell>
        <mxCell id="wQzWPM8DhsRYUBK1nbHr-7" value="" style="group;rotation=-181;" parent="wQzWPM8DhsRYUBK1nbHr-8" vertex="1" connectable="0">
          <mxGeometry width="100" height="50" as="geometry" />
        </mxCell>
        <mxCell id="wQzWPM8DhsRYUBK1nbHr-2" value="" style="rounded=1;whiteSpace=wrap;html=1;rotation=-181;" parent="wQzWPM8DhsRYUBK1nbHr-7" vertex="1">
          <mxGeometry width="100" height="41.66666666666667" as="geometry" />
        </mxCell>
        <mxCell id="wQzWPM8DhsRYUBK1nbHr-3" value="" style="ellipse;whiteSpace=wrap;html=1;aspect=fixed;rotation=-181;" parent="wQzWPM8DhsRYUBK1nbHr-7" vertex="1">
          <mxGeometry x="57" y="8" width="25" height="25" as="geometry" />
        </mxCell>
        <mxCell id="wQzWPM8DhsRYUBK1nbHr-4" value="" style="ellipse;whiteSpace=wrap;html=1;aspect=fixed;rotation=-181;" parent="wQzWPM8DhsRYUBK1nbHr-7" vertex="1">
          <mxGeometry x="20" y="8" width="25" height="25" as="geometry" />
        </mxCell>
        <mxCell id="wQzWPM8DhsRYUBK1nbHr-6" value="" style="rounded=0;whiteSpace=wrap;html=1;rotation=-181;" parent="wQzWPM8DhsRYUBK1nbHr-7" vertex="1">
          <mxGeometry x="18" y="42" width="63.63636363636363" height="8.333333333333334" as="geometry" />
        </mxCell>
        <mxCell id="wQzWPM8DhsRYUBK1nbHr-18" value="" style="group" parent="62Qr0YO84GYJHYSvFtpG-1" vertex="1" connectable="0">
          <mxGeometry y="280" width="180" height="70" as="geometry" />
        </mxCell>
        <mxCell id="wQzWPM8DhsRYUBK1nbHr-16" value="" style="group" parent="wQzWPM8DhsRYUBK1nbHr-18" vertex="1" connectable="0">
          <mxGeometry y="10" width="180" height="60" as="geometry" />
        </mxCell>
        <mxCell id="wQzWPM8DhsRYUBK1nbHr-11" value="" style="rounded=1;whiteSpace=wrap;html=1;" parent="wQzWPM8DhsRYUBK1nbHr-16" vertex="1">
          <mxGeometry width="180" height="60" as="geometry" />
        </mxCell>
        <mxCell id="wQzWPM8DhsRYUBK1nbHr-12" value="" style="verticalLabelPosition=bottom;shadow=0;dashed=0;align=center;html=1;verticalAlign=top;shape=mxgraph.electrical.opto_electronics.7_segment_display;pointerEvents=1;" parent="wQzWPM8DhsRYUBK1nbHr-16" vertex="1">
          <mxGeometry x="10" y="5" width="37" height="50" as="geometry" />
        </mxCell>
        <mxCell id="wQzWPM8DhsRYUBK1nbHr-13" value="" style="verticalLabelPosition=bottom;shadow=0;dashed=0;align=center;html=1;verticalAlign=top;shape=mxgraph.electrical.opto_electronics.7_segment_display;pointerEvents=1;" parent="wQzWPM8DhsRYUBK1nbHr-16" vertex="1">
          <mxGeometry x="50" y="5" width="37" height="50" as="geometry" />
        </mxCell>
        <mxCell id="wQzWPM8DhsRYUBK1nbHr-14" value="" style="verticalLabelPosition=bottom;shadow=0;dashed=0;align=center;html=1;verticalAlign=top;shape=mxgraph.electrical.opto_electronics.7_segment_display;pointerEvents=1;" parent="wQzWPM8DhsRYUBK1nbHr-16" vertex="1">
          <mxGeometry x="90" y="5" width="37" height="50" as="geometry" />
        </mxCell>
        <mxCell id="wQzWPM8DhsRYUBK1nbHr-15" value="" style="verticalLabelPosition=bottom;shadow=0;dashed=0;align=center;html=1;verticalAlign=top;shape=mxgraph.electrical.opto_electronics.7_segment_display;pointerEvents=1;" parent="wQzWPM8DhsRYUBK1nbHr-16" vertex="1">
          <mxGeometry x="130" y="5" width="37" height="50" as="geometry" />
        </mxCell>
        <mxCell id="wQzWPM8DhsRYUBK1nbHr-17" value="" style="rounded=0;whiteSpace=wrap;html=1;" parent="wQzWPM8DhsRYUBK1nbHr-18" vertex="1">
          <mxGeometry x="40" width="110" height="10" as="geometry" />
        </mxCell>
        <mxCell id="wQzWPM8DhsRYUBK1nbHr-20" value="" style="endArrow=classic;startArrow=classic;html=1;" parent="62Qr0YO84GYJHYSvFtpG-1" edge="1">
          <mxGeometry width="50" height="50" relative="1" as="geometry">
            <mxPoint x="89.5" y="131" as="sourcePoint" />
            <mxPoint x="89.5" y="91" as="targetPoint" />
            <Array as="points">
              <mxPoint x="89.5" y="101" />
            </Array>
          </mxGeometry>
        </mxCell>
        <mxCell id="wQzWPM8DhsRYUBK1nbHr-21" value="" style="endArrow=classic;html=1;" parent="62Qr0YO84GYJHYSvFtpG-1" edge="1">
          <mxGeometry width="50" height="50" relative="1" as="geometry">
            <mxPoint x="94" y="240" as="sourcePoint" />
            <mxPoint x="94" y="270" as="targetPoint" />
          </mxGeometry>
        </mxCell>
        <mxCell id="wQzWPM8DhsRYUBK1nbHr-23" value="" style="dashed=0;outlineConnect=0;html=1;align=center;labelPosition=center;verticalLabelPosition=bottom;verticalAlign=top;shape=mxgraph.weblogos.arduino;fillColor=#36868D;strokeColor=none;rotation=-90;" parent="62Qr0YO84GYJHYSvFtpG-1" vertex="1">
          <mxGeometry x="66.30000000000001" y="173.75" width="47.4" height="22.5" as="geometry" />
        </mxCell>
        <mxCell id="wQzWPM8DhsRYUBK1nbHr-24" value="HCSR04" style="text;html=1;strokeColor=none;fillColor=none;align=center;verticalAlign=middle;whiteSpace=wrap;rounded=0;" parent="62Qr0YO84GYJHYSvFtpG-1" vertex="1">
          <mxGeometry x="60" width="60" height="26.25" as="geometry" />
        </mxCell>
        <mxCell id="wQzWPM8DhsRYUBK1nbHr-25" value="LCD Display" style="text;html=1;strokeColor=none;fillColor=none;align=center;verticalAlign=middle;whiteSpace=wrap;rounded=0;" parent="62Qr0YO84GYJHYSvFtpG-1" vertex="1">
          <mxGeometry x="55" y="350" width="80" height="20" as="geometry" />
        </mxCell>
      </root>
    </mxGraphModel>
  </diagram>
</mxfile>
